<svg preserveAspectRatio="none" overflow="visible" style="display: block;" width="87.1284" height="46.9846" viewBox="0 0 87.1284 46.9846" fill="none" xmlns="http://www.w3.org/2000/svg">
<g id="Group">
<path id="Vector" d="M57.1593 26.7649C56.6648 28.5078 56.1361 30.2408 55.5731 31.9641C56.4396 30.2506 57.3649 28.5665 58.344 26.9118C60.6059 23.0882 63.1565 19.4409 65.9765 16.009C67.0486 14.6969 68.4488 13.2919 70.1427 13.4583C74.0299 13.8451 72.8256 17.8253 72.4976 20.327C72.1598 22.912 71.8513 25.5018 71.5527 28.0916C71.3079 30.2017 71.0729 32.3166 70.8183 34.4316C71.4597 32.2383 72.4046 30.1282 73.6187 28.1846C74.1327 27.3524 74.7055 26.5495 75.3175 25.7809C76.1596 24.7332 77.1975 23.6904 78.5291 23.5043C80.0859 23.2938 81.5987 24.3856 82.3135 25.7906C82.9891 27.1125 83.0821 28.6448 83.0185 30.1331C85.3635 31.5088 87.2043 33.8931 87.126 36.5759C87.0574 38.965 85.4761 41.1191 83.4787 42.441C81.4812 43.7579 79.1068 44.3699 76.7617 44.8399C73.7705 45.4421 70.7547 45.8631 67.7193 46.1568C63.886 46.5289 60.0233 46.7149 56.1703 46.8422C56.1606 46.8422 56.1459 46.8422 56.1361 46.8422C51.8866 46.9842 47.5882 47.0478 43.3044 46.901C39.3829 46.7688 35.4761 46.4604 31.6379 45.868C25.391 44.9133 19.3301 43.2243 13.6853 40.3652C12.7209 39.8756 11.7711 39.3518 10.8458 38.7839C8.28044 37.2172 5.9207 35.3373 4.02116 33.0167C2.65526 31.3424 1.54393 29.4233 0.843839 27.3866C0.217188 25.5752 -0.0863471 23.6757 0.0213587 21.7615C0.30531 16.7923 3.37003 12.2931 7.32577 9.26759C11.2766 6.24694 16.0548 4.50406 20.8282 3.10388C24.3531 2.07089 27.9318 1.18476 31.398 0C31.4714 0.489572 31.5449 0.984037 31.6134 1.47361C31.5204 2.53598 31.3001 3.60325 31.0308 4.69009C30.5902 6.47703 33.3465 7.23587 33.7871 5.44893C33.8165 5.33633 33.841 5.22863 33.8655 5.11602C34.4089 5.28737 35.016 5.13071 35.3587 4.45021C35.5006 4.16625 35.6426 3.8872 35.7846 3.60814C36.3133 3.7746 36.9693 3.68158 37.3855 3.34867C37.4051 3.32909 37.4246 3.3144 37.4442 3.29482C37.2974 4.3425 38.2912 5.43425 39.5102 4.75374C39.7061 4.64604 39.9019 4.54323 40.0977 4.44042C40.5383 4.33271 40.9789 4.2299 41.4 4.1124C41.9581 4.49427 42.8099 4.54322 43.3387 4.04876C43.4023 3.99001 43.466 3.93126 43.5345 3.87251C44.1269 4.04386 44.5479 4.36698 45.013 4.8027C45.1697 4.94957 45.3312 5.10623 45.5075 5.27758C45.8893 5.63987 46.2908 5.92382 46.6384 6.24693C47.1231 7.24566 47.128 8.50875 47.0203 9.62008C46.9958 9.85997 46.9664 10.095 46.937 10.3202C46.5062 13.5709 45.5515 16.7482 45.0081 19.9794C44.7535 21.4873 44.499 22.9952 44.2493 24.4982C43.9262 26.4271 43.603 28.3462 43.2799 30.2751C43.8233 28.3805 44.4745 26.525 45.2333 24.7038C47.5784 19.0786 50.9172 13.8647 55.0541 9.39488C56.0431 8.32272 57.4041 7.21139 58.7945 7.63732C59.71 7.91637 60.317 8.83187 60.508 9.76696C60.6989 10.7069 60.5471 11.6763 60.3856 12.6212C59.5631 17.3798 58.4909 22.0944 57.1642 26.7404C57.1642 26.7551 57.1642 26.76 57.1593 26.7649ZM34.7516 12.1169C33.5374 12.396 32.3429 12.7387 31.1826 13.194C29.5768 13.8206 28.0004 14.7067 27.0212 16.1265C26.7177 16.572 26.4778 17.0812 26.3407 17.6099C26.9968 19.0003 28.3774 19.9549 29.9195 20.6501C31.3393 17.6833 32.8765 14.7459 34.7516 12.1169Z" fill="#E55334"/>
<path id="Vector_2" d="M72.8213 28.1552C73.0808 28.165 73.3451 28.1797 73.6095 28.1895C72.3954 30.1331 71.4505 32.2382 70.8091 34.4364C71.0637 32.3264 71.3036 30.2114 71.5435 28.0965C71.9743 28.116 72.3954 28.1356 72.8213 28.1552Z" fill="#E55334"/>
<path id="Vector_3" d="M57.1599 26.7644C57.5075 26.8134 58.0069 26.8672 58.3398 26.9113C57.3606 28.566 56.4354 30.2502 55.5688 31.9637C56.1367 30.2404 56.6654 28.5122 57.1599 26.7644Z" fill="#E55334"/>
<path id="Vector_4" d="M50.3599 5.9822C50.3452 6.11928 50.3305 6.25146 50.3158 6.38365C50.3109 6.38854 50.3011 6.39344 50.2962 6.39833C50.3207 6.25636 50.3403 6.11928 50.3599 5.9822Z" fill="#E55334"/>
<path id="Vector_5" d="M46.6446 6.2421C46.297 5.91898 45.8906 5.63993 45.5136 5.27275C45.3374 5.1014 45.1758 4.94473 45.0192 4.79786C45.3325 4.89088 45.6262 5.04265 45.8955 5.26785C46.2186 5.54201 46.4634 5.87492 46.6446 6.2421Z" fill="#E55334"/>
<path id="Vector_6" d="M44.2599 24.5029C44.588 24.5715 44.916 24.64 45.2391 24.7085C44.4803 26.5297 43.8291 28.3852 43.2857 30.2799C43.6088 28.3509 43.9319 26.4269 44.2599 24.5029Z" fill="#E55334"/>
</g>
</svg>
