<svg preserveAspectRatio="none" overflow="visible" style="display: block;" width="32" height="32" viewBox="0 0 32 32" fill="none" xmlns="http://www.w3.org/2000/svg">
<g id="Social media">
<path id="Vector" fill-rule="evenodd" clip-rule="evenodd" d="M3.74055 6.66563C2.66875 8.52207 2.66875 11.0143 2.66875 15.999C2.66875 20.9836 2.66875 23.4759 3.74055 25.3323C4.44269 26.5485 5.4526 27.5584 6.66876 28.2605C8.5252 29.3323 11.0174 29.3323 16.0021 29.3323C20.9867 29.3323 23.479 29.3323 25.3354 28.2605C26.5516 27.5584 27.5615 26.5485 28.2636 25.3323C29.3354 23.4759 29.3354 20.9836 29.3354 15.999C29.3354 11.0143 29.3354 8.52207 28.2636 6.66563C27.5615 5.44947 26.5516 4.43957 25.3354 3.73743C23.479 2.66563 20.9867 2.66563 16.0021 2.66563C11.0174 2.66563 8.5252 2.66563 6.66876 3.73743C5.4526 4.43957 4.44269 5.44947 3.74055 6.66563ZM16.0021 2.66563L15.5205 9.58735C15.2993 12.7662 12.7694 15.2962 9.59048 15.5174L2.66875 15.999L9.59048 16.4806C12.7694 16.7018 15.2993 19.2317 15.5205 22.4106L16.0021 29.3323L16.4837 22.4106C16.7049 19.2317 19.2348 16.7018 22.4137 16.4806L29.3354 15.999L22.4137 15.5174C19.2348 15.2962 16.7049 12.7662 16.4837 9.58735L16.0021 2.66563Z" fill="white"/>
</g>
</svg>
