<svg preserveAspectRatio="none" overflow="visible" style="display: block;" width="89.5877" height="28" viewBox="0 0 89.5877 28" fill="none" xmlns="http://www.w3.org/2000/svg">
<g id="Logo-service">
<path id="Vector" d="M89.5877 17.4804V21.1173C89.5877 23.3333 89.0402 25.041 87.9452 26.2402C86.8763 27.4134 85.286 28 83.1743 28C81.0625 28 79.4592 27.4134 78.3642 26.2402C77.2953 25.041 76.7609 23.3333 76.7609 21.1173V6.88268C76.7609 4.66666 77.2953 2.97206 78.3642 1.79888C79.4592 0.599626 81.0625 0 83.1743 0C85.286 0 86.8763 0.599626 87.9452 1.79888C89.0402 2.97206 89.5877 4.66666 89.5877 6.88268V9.5419H85.5206V6.60894C85.5206 5.61825 85.3121 4.92737 84.8949 4.53631C84.5039 4.11918 83.9694 3.91061 83.2916 3.91061C82.6137 3.91061 82.0663 4.11918 81.6491 4.53631C81.2581 4.92737 81.0625 5.61825 81.0625 6.60894V21.3911C81.0625 22.3818 81.2581 23.0726 81.6491 23.4637C82.0663 23.8547 82.6137 24.0503 83.2916 24.0503C83.9694 24.0503 84.5039 23.8547 84.8949 23.4637C85.3121 23.0726 85.5206 22.3818 85.5206 21.3911V17.4804H89.5877Z" fill="#FF3000"/>
<path id="Vector_2" d="M64.8057 27.6871H60.3867V0.312807H64.2191V16.6983L68.6381 0.312807H74.0348V27.6871H70.1633V7.86029L64.8057 27.6871Z" fill="#FF3000"/>
<path id="Vector_3" d="M51.0298 0.312807C53.2719 0.312807 54.8883 0.834223 55.879 1.87705C56.8958 2.91988 57.4041 4.49716 57.4041 6.6089V7.58655C57.4041 8.99437 57.1825 10.1545 56.7393 11.067C56.2961 11.9795 55.5922 12.6573 54.6276 13.1005C55.8008 13.5437 56.622 14.2737 57.0913 15.2905C57.5866 16.2812 57.8343 17.5065 57.8343 18.9664V21.1955C57.8343 23.3072 57.2868 24.9236 56.1918 26.0447C55.0969 27.1396 53.4674 27.6871 51.3036 27.6871H44.5382V0.312807H51.0298ZM48.8399 15.3687V23.7765H51.3036C52.0336 23.7765 52.581 23.581 52.946 23.1899C53.3371 22.7988 53.5326 22.0949 53.5326 21.0782V18.6927C53.5326 17.4152 53.311 16.5419 52.8678 16.0726C52.4507 15.6033 51.7468 15.3687 50.7561 15.3687H48.8399ZM48.8399 4.22342V11.4581H50.5215C51.3296 11.4581 51.9553 11.2495 52.3985 10.8324C52.8678 10.4152 53.1025 9.65918 53.1025 8.5642V7.03906C53.1025 6.04837 52.92 5.33143 52.555 4.88823C52.2161 4.44502 51.6686 4.22342 50.9125 4.22342H48.8399Z" fill="#FF3000"/>
<path id="Vector_4" d="M36.1701 0.312807C38.334 0.312807 39.9374 0.886364 40.9802 2.03348C42.0491 3.18059 42.5835 4.86216 42.5835 7.07817V10.6368C42.5835 12.8528 42.0491 14.5344 40.9802 15.6815C39.9374 16.8286 38.334 17.4022 36.1701 17.4022H34.1366V27.6871H29.8349V0.312807H36.1701ZM34.1366 4.22342V13.4916H36.1701C36.848 13.4916 37.3694 13.3091 37.7344 12.9441C38.0994 12.5791 38.2819 11.9013 38.2819 10.9106V6.80443C38.2819 5.81374 38.0994 5.1359 37.7344 4.77091C37.3694 4.40592 36.848 4.22342 36.1701 4.22342H34.1366Z" fill="#FF3000"/>
<path id="Vector_5" d="M19.854 11.8491H25.7591V15.7597H19.854V23.7765H27.2842V27.6871H15.5524V0.312807H27.2842V4.22342H19.854V11.8491Z" fill="#FF3000"/>
<path id="Vector_6" d="M12.8268 17.4804V21.1173C12.8268 23.3333 12.2793 25.041 11.1844 26.2402C10.1155 27.4134 8.52514 28 6.41341 28C4.30168 28 2.69832 27.4134 1.60335 26.2402C0.534451 25.041 0 23.3333 0 21.1173V6.88268C0 4.66666 0.534451 2.97206 1.60335 1.79888C2.69832 0.599626 4.30168 0 6.41341 0C8.52514 0 10.1155 0.599626 11.1844 1.79888C12.2793 2.97206 12.8268 4.66666 12.8268 6.88268V9.5419H8.75978V6.60894C8.75978 5.61825 8.55121 4.92737 8.13408 4.53631C7.74302 4.11918 7.20857 3.91061 6.53073 3.91061C5.85289 3.91061 5.3054 4.11918 4.88827 4.53631C4.49721 4.92737 4.30168 5.61825 4.30168 6.60894V21.3911C4.30168 22.3818 4.49721 23.0726 4.88827 23.4637C5.3054 23.8547 5.85289 24.0503 6.53073 24.0503C7.20857 24.0503 7.74302 23.8547 8.13408 23.4637C8.55121 23.0726 8.75978 22.3818 8.75978 21.3911V17.4804H12.8268Z" fill="#FF3000"/>
</g>
</svg>
