<svg preserveAspectRatio="none" overflow="visible" style="display: block;" width="81.0792" height="24.2027" viewBox="0 0 81.0792 24.2027" fill="none" xmlns="http://www.w3.org/2000/svg">
<g id="Google_Play_Store_badge_EN 1">
<path id="path35" d="M64.2245 18.1498H65.3452V10.5854H64.2245V18.1498ZM74.3184 13.3105L73.0338 16.5898H72.9954L71.6621 13.3105H70.455L72.4549 17.8939L71.3144 20.4436H72.4831L75.5647 13.3107L74.3184 13.3105ZM67.9627 17.2906C67.5964 17.2906 67.0841 17.1055 67.0841 16.6482C67.0841 16.0644 67.7219 15.8406 68.272 15.8406C68.7645 15.8406 68.9969 15.9474 69.296 16.0935C69.2089 16.7942 68.6101 17.2906 67.9627 17.2906ZM68.0984 13.145C67.2871 13.145 66.4469 13.5052 66.0991 14.3032L67.0937 14.7215C67.3063 14.3032 67.702 14.167 68.1177 14.167C68.6972 14.167 69.2864 14.5171 69.296 15.1401V15.2178C69.093 15.1011 68.6582 14.926 68.1273 14.926C67.0546 14.926 65.9634 15.5194 65.9634 16.6288C65.9634 17.6409 66.8427 18.293 67.8276 18.293C68.5807 18.293 68.9969 17.9524 69.2569 17.5532H69.296V18.1374H70.3782V15.2372C70.3782 13.8942 69.3825 13.145 68.0984 13.145ZM61.1725 14.2313H59.5785V11.6386H61.1725C62.0103 11.6386 62.4859 12.3372 62.4859 12.9349C62.4859 13.5211 62.0102 14.2313 61.1725 14.2313ZM61.1436 10.5856H58.4584V18.15H59.5786V15.2843H61.1437C62.3857 15.2843 63.6066 14.3786 63.6066 12.9352C63.6066 11.492 62.3856 10.5856 61.1436 10.5856ZM46.5012 17.2919C45.727 17.2919 45.079 16.6386 45.079 15.7421C45.079 14.8353 45.727 14.1727 46.5012 14.1727C47.2655 14.1727 47.8654 14.8353 47.8654 15.7421C47.8654 16.6386 47.2655 17.2919 46.5012 17.2919ZM47.788 13.7339H47.7492C47.4978 13.4318 47.0137 13.1589 46.4045 13.1589C45.1271 13.1589 43.9565 14.2898 43.9565 15.7421C43.9565 17.1846 45.1271 18.3056 46.4045 18.3056C47.0137 18.3056 47.4977 18.0326 47.7492 17.7209H47.788V18.091C47.788 19.0759 47.2655 19.602 46.4238 19.602C45.7371 19.602 45.3113 19.1049 45.137 18.6858L44.1599 19.0952C44.4403 19.7772 45.1851 20.6159 46.4238 20.6159C47.7399 20.6159 48.8526 19.8359 48.8526 17.9349V13.3148H47.788L47.788 13.7339ZM49.6268 18.1496H50.7486V10.5851H49.6268V18.1496ZM52.4033 15.6542C52.3744 14.6599 53.168 14.1531 53.7386 14.1531C54.1839 14.1531 54.5608 14.3774 54.6871 14.6989L52.4033 15.6542ZM55.8863 14.7963C55.6736 14.2215 55.0254 13.1589 53.6999 13.1589C52.3838 13.1589 51.2905 14.2018 51.2905 15.7322C51.2905 17.1749 52.3744 18.3056 53.8254 18.3056C54.996 18.3056 55.6736 17.5845 55.9543 17.1652L55.0835 16.5803C54.7931 17.0093 54.3966 17.2919 53.8254 17.2919C53.2549 17.2919 52.8483 17.0287 52.5874 16.512L56.0025 15.0889L55.8863 14.7963ZM28.6757 13.9485V15.0402H31.2687C31.1912 15.6543 30.9881 16.1026 30.6784 16.4146C30.3009 16.7946 29.7107 17.2139 28.6757 17.2139C27.0792 17.2139 25.8311 15.9175 25.8311 14.3092C25.8311 12.7008 27.0792 11.4042 28.6757 11.4042C29.5368 11.4042 30.1656 11.7455 30.63 12.1841L31.3946 11.4139C30.7462 10.7901 29.8852 10.3125 28.6757 10.3125C26.4887 10.3125 24.6504 12.1061 24.6504 14.3092C24.6504 16.512 26.4887 18.3056 28.6757 18.3056C29.8559 18.3056 30.7462 17.9157 31.4427 17.1846C32.1587 16.4633 32.3813 15.4496 32.3813 14.6306C32.3813 14.3775 32.3618 14.1435 32.3231 13.9485H28.6757ZM35.3296 17.2919C34.5554 17.2919 33.8877 16.6485 33.8877 15.7322C33.8877 14.8062 34.5554 14.1728 35.3296 14.1728C36.1035 14.1728 36.7711 14.8062 36.7711 15.7322C36.7711 16.6485 36.1035 17.2919 35.3296 17.2919ZM35.3296 13.1589C33.9166 13.1589 32.7654 14.2408 32.7654 15.7322C32.7654 17.2139 33.9166 18.3056 35.3296 18.3056C36.7421 18.3056 37.8935 17.2139 37.8935 15.7322C37.8935 14.2408 36.7421 13.1589 35.3296 13.1589ZM40.9227 17.2919C40.149 17.2919 39.4812 16.6485 39.4812 15.7322C39.4812 14.8062 40.1491 14.1728 40.9227 14.1728C41.6969 14.1728 42.3644 14.8062 42.3644 15.7322C42.3644 16.6485 41.6969 17.2919 40.9227 17.2919ZM40.9227 13.1589C39.5102 13.1589 38.359 14.2408 38.359 15.7322C38.359 17.2139 39.5102 18.3056 40.9227 18.3056C42.3357 18.3056 43.4869 17.2139 43.4869 15.7322C43.4869 14.2408 42.3357 13.1589 40.9227 13.1589Z" fill="white"/>
<path id="path37" d="M12.4424 11.7501L6.04883 18.5871C6.04907 18.5885 6.04955 18.5897 6.04977 18.5911C6.24586 19.3336 6.91894 19.8802 7.71775 19.8802C8.03708 19.8802 8.33688 19.7932 8.59399 19.6405L8.61441 19.6285L15.8115 15.4444L12.4424 11.7501Z" fill="#EB3131"/>
<path id="path39" d="M18.9109 10.5924L18.9048 10.5882L15.7976 8.77344L12.2969 11.9118L15.8097 15.4504L18.9005 13.6537C19.4424 13.359 19.8103 12.7834 19.8103 12.1197C19.8103 11.4608 19.4474 10.8881 18.9109 10.5924Z" fill="#F6B60B"/>
<path id="path41" d="M6.04887 5.61719C6.01044 5.75998 5.99023 5.90955 5.99023 6.06487V18.1465C5.99023 18.3015 6.0102 18.4516 6.04912 18.5939L12.6634 11.9316L6.04887 5.61719Z" fill="#5778C5"/>
<path id="path43" d="M12.4901 12.1015L15.7997 8.76823L8.61063 4.56899C8.34932 4.41131 8.04434 4.32031 7.71799 4.32031C6.91918 4.32031 6.24519 4.86796 6.04907 5.61125C6.04883 5.61198 6.04883 5.61247 6.04883 5.61311L12.4901 12.1015Z" fill="#3BAD49"/>
<path id="path33" d="M28.4637 5.91603H26.7117V6.35282H28.0246C27.9889 6.70926 27.8481 6.9891 27.6107 7.19236C27.3733 7.39565 27.0702 7.49773 26.7117 7.49773C26.3185 7.49773 25.9854 7.35971 25.7124 7.08557C25.4449 6.80573 25.3089 6.45968 25.3089 6.04277C25.3089 5.62589 25.4449 5.27983 25.7124 5.00002C25.9854 4.72586 26.3185 4.58876 26.7117 4.58876C26.9135 4.58876 27.1059 4.62374 27.2823 4.70033C27.4587 4.77687 27.6004 4.88373 27.7111 5.02083L28.0443 4.68521C27.8932 4.51216 27.7018 4.37983 27.4643 4.28339C27.2269 4.18694 26.9792 4.14066 26.7117 4.14066C26.1872 4.14066 25.7424 4.32405 25.3792 4.68994C25.016 5.05673 24.834 5.50865 24.834 6.04278C24.834 6.57691 25.016 7.0298 25.3792 7.3957C25.7424 7.76152 26.1872 7.94499 26.7117 7.94499C27.2625 7.94499 27.7017 7.76723 28.0395 7.40605C28.337 7.10546 28.489 6.69893 28.489 6.19031C28.489 6.10427 28.4787 6.01247 28.4637 5.91603ZM29.1424 4.22188V7.86362H31.2528V7.41642H29.6069V6.26117H31.0915V5.82438H29.6069V4.67004H31.2528V4.22187L29.1424 4.22188ZM34.2121 4.67005V4.22188H31.7282V4.67005H32.7379V7.86361H33.2024V4.67005H34.2121ZM36.461 4.22188H35.9965V7.86362H36.461V4.22188ZM39.5269 4.67005V4.22188H37.043V4.67005H38.0527V7.86361H38.5172V4.67005H39.5269ZM44.2142 4.69558C43.8557 4.32402 43.4166 4.14062 42.892 4.14062C42.3665 4.14062 41.9274 4.32402 41.5689 4.68991C41.2104 5.05107 41.034 5.5039 41.034 6.04275C41.034 6.58159 41.2104 7.03449 41.5689 7.39567C41.9273 7.76149 42.3665 7.94496 42.892 7.94496C43.4118 7.94496 43.8557 7.7615 44.2142 7.39567C44.5727 7.03451 44.7491 6.58164 44.7491 6.04275C44.7491 5.50862 44.5727 5.05667 44.2142 4.69558ZM41.902 4.99999C42.1694 4.72583 42.4979 4.58873 42.892 4.58873C43.2852 4.58873 43.6136 4.72584 43.8764 4.99999C44.1438 5.26942 44.2752 5.62106 44.2752 6.04274C44.2752 6.46537 44.1438 6.81606 43.8764 7.08553C43.6136 7.35969 43.2852 7.4977 42.892 7.4977C42.4979 7.4977 42.1694 7.35968 41.902 7.08553C41.6402 6.81041 41.5088 6.46537 41.5088 6.04274C41.5088 5.62107 41.6402 5.27508 41.902 4.99999ZM45.8526 5.5956L45.833 4.89311H45.8526L47.69 7.86358H48.1752V4.22185H47.7107V6.35278L47.7303 7.05527H47.7107L45.954 4.22185H45.3881V7.86358H45.8526V5.5956Z" fill="white" stroke="white" stroke-width="0.161348" stroke-miterlimit="10"/>
</g>
</svg>
