<svg preserveAspectRatio="none" overflow="visible" style="display: block;" width="75.0285" height="24.2027" viewBox="0 0 75.0285 24.2027" fill="none" xmlns="http://www.w3.org/2000/svg">
<g id="logo-color-dark 1">
<path id="Vector" d="M6.56171 19.1594C7.75628 20.3139 9.67891 20.3139 13.5242 20.3139H14.2039C18.0491 20.3139 19.9718 20.3139 21.1663 19.1594C22.3609 18.005 22.3609 16.1469 22.3609 12.4307V11.7738C22.3609 8.05759 22.3609 6.19952 21.1663 5.04505C19.9718 3.89062 18.0491 3.89062 14.2039 3.89062H13.5242C9.67891 3.89062 7.75628 3.89062 6.56171 5.04505C5.36719 6.19952 5.36719 8.05759 5.36719 11.7738V12.4307C5.36719 16.1469 5.36719 18.005 6.56171 19.1594Z" fill="#0077FF"/>
<path id="Vector_2" fill-rule="evenodd" clip-rule="evenodd" d="M18.4876 14.8025L17.3394 14.5253C17.2011 14.487 17.1035 14.3667 17.0986 14.227L16.9552 10.1428C16.9138 9.60219 16.4986 9.17222 16.0647 9.04562C16.0403 9.0385 16.0143 9.04809 15.9999 9.06834C15.9852 9.08895 15.9909 9.11744 16.0113 9.13271C16.1185 9.2129 16.4134 9.47448 16.4134 9.92567L16.4125 15.2657C16.4125 15.7813 15.9084 16.1595 15.3883 16.034L14.2224 15.7525C14.0931 15.7088 14.0033 15.5924 13.9986 15.4582L13.8553 11.3736C13.8138 10.8331 13.3986 10.4032 12.9647 10.2765C12.9404 10.2694 12.9143 10.279 12.8999 10.2992C12.8853 10.3199 12.8909 10.3483 12.9113 10.3636C13.0185 10.4438 13.3134 10.7054 13.3134 11.1566L13.3126 15.6078L13.3132 15.6079V16.4971C13.3132 17.0127 12.809 17.391 12.289 17.2654L8.99567 16.4703C8.5378 16.3598 8.2168 15.964 8.2168 15.51V10.1616C8.2168 9.64599 8.72096 9.26782 9.24098 9.39335L11.3161 9.89435V8.93019C11.3161 8.41458 11.8203 8.03637 12.3403 8.16194L14.4153 8.66289V7.69874C14.4153 7.18313 14.9195 6.80491 15.4396 6.93049L18.7329 7.72555C19.1908 7.83609 19.5118 8.2319 19.5118 8.68589V14.0343C19.5118 14.5499 19.0076 14.9281 18.4876 14.8025Z" fill="white"/>
<path id="Vector_3" d="M32.3106 19.0158H31.0119L28.9512 16.236H27.8672V19.0158H26.7617V11.7031H29.4235C29.9387 11.7031 30.4002 11.7999 30.808 11.9936C31.2158 12.1872 31.5307 12.4569 31.7525 12.8026C31.9815 13.1415 32.096 13.5322 32.096 13.9747C32.096 14.528 31.9206 15.0016 31.57 15.3958C31.2195 15.783 30.7508 16.0389 30.164 16.1634L32.3106 19.0158ZM27.8672 12.6885V15.2609H29.4235C29.8814 15.2609 30.2499 15.1434 30.529 14.9083C30.8152 14.6662 30.9583 14.355 30.9583 13.9747C30.9583 13.5944 30.8152 13.2867 30.529 13.0516C30.2499 12.8096 29.8814 12.6885 29.4235 12.6885H27.8672Z" fill="white"/>
<path id="Vector_4" d="M35.2453 19.1226C34.8517 19.1226 34.4976 19.0293 34.1827 18.8426C33.8679 18.6489 33.621 18.3862 33.4421 18.0543C33.2632 17.7154 33.1738 17.3351 33.1738 16.9132V13.6562H34.2257V16.8303C34.2257 17.2383 34.3437 17.5702 34.5798 17.8261C34.816 18.0819 35.1201 18.2099 35.4921 18.2099C35.8785 18.2099 36.2005 18.0785 36.4581 17.8157C36.7156 17.5529 36.8445 17.2244 36.8445 16.8303V13.6562H37.8963V19.0189H37.145L36.8981 18.2099C36.7193 18.5003 36.4831 18.725 36.1897 18.884C35.9035 19.0431 35.5887 19.1226 35.2453 19.1226Z" fill="white"/>
<path id="Vector_5" d="M41.8198 19.1217C41.1258 19.1217 40.5211 18.9488 40.0059 18.603C39.4979 18.2504 39.1509 17.7733 38.9648 17.1716L40.0274 17.0057C40.2349 17.3929 40.4818 17.6799 40.768 17.8666C41.0542 18.0464 41.4048 18.1363 41.8198 18.1363C42.242 18.1363 42.5854 18.0464 42.8502 17.8666C43.1149 17.6799 43.2473 17.4275 43.2473 17.1094C43.2473 16.8743 43.1721 16.6772 43.0219 16.5182C42.8788 16.3591 42.6963 16.2312 42.4745 16.1344C42.2527 16.0376 41.9629 15.9304 41.6051 15.8128C41.1258 15.6607 40.7322 15.5085 40.4245 15.3564C40.1169 15.2043 39.8557 14.9899 39.6411 14.7133C39.4335 14.4298 39.3298 14.0702 39.3298 13.6346C39.3298 13.2266 39.4335 12.8704 39.6411 12.5662C39.8557 12.255 40.1491 12.0165 40.5211 11.8505C40.8932 11.6845 41.3082 11.6016 41.7662 11.6016C42.403 11.6016 42.9503 11.764 43.4083 12.0891C43.8662 12.4071 44.1918 12.8462 44.385 13.4064L43.3439 13.5723C43.2008 13.2542 42.9969 13.0122 42.7321 12.8462C42.4673 12.6734 42.1561 12.5869 41.7984 12.5869C41.412 12.5869 41.0936 12.6768 40.8431 12.8566C40.5927 13.0295 40.4675 13.2681 40.4675 13.5723C40.4675 13.8005 40.539 13.9941 40.6821 14.1532C40.8324 14.3123 41.0148 14.4402 41.2295 14.537C41.4513 14.6338 41.7447 14.7444 42.1096 14.8689C42.5747 15.021 42.9611 15.1766 43.2687 15.3357C43.5836 15.4878 43.8483 15.7057 44.063 15.9891C44.2776 16.2727 44.385 16.6288 44.385 17.0575C44.385 17.4725 44.2705 17.8355 44.0415 18.1466C43.8197 18.4578 43.512 18.6999 43.1185 18.8727C42.7321 19.0387 42.2992 19.1217 41.8198 19.1217Z" fill="white"/>
<path id="Vector_6" d="M48.8268 18.1202L48.7304 19.0122H47.7536C47.1738 19.0122 46.7341 18.874 46.4335 18.5974C46.1329 18.3207 45.9826 17.9231 45.9826 17.4045V14.5521H45.0273V13.6496H45.9826L46.2725 12.0938H47.0342V13.6496H48.7304V14.5521H47.0342V17.4045C47.0342 17.8817 47.274 18.1202 47.7536 18.1202H48.8268Z" fill="white"/>
<path id="Vector_7" d="M52.3347 19.117C51.7691 19.117 51.2648 18.9994 50.8213 18.7643C50.3778 18.5292 50.0306 18.2007 49.7799 17.7789C49.5297 17.3571 49.4043 16.8765 49.4043 16.3371C49.4043 15.7977 49.5297 15.3171 49.7799 14.8953C50.0306 14.4735 50.3778 14.145 50.8213 13.9099C51.2648 13.6679 51.7691 13.5469 52.3347 13.5469C52.8998 13.5469 53.4041 13.6679 53.8476 13.9099C54.2916 14.145 54.6382 14.4735 54.889 14.8953C55.1392 15.3171 55.2646 15.7977 55.2646 16.3371C55.2646 16.8765 55.1392 17.3571 54.889 17.7789C54.6382 18.2007 54.2916 18.5292 53.8476 18.7643C53.4041 18.9994 52.8998 19.117 52.3347 19.117ZM52.3347 18.1834C52.8784 18.1834 53.3181 18.014 53.6548 17.6752C53.9981 17.3363 54.17 16.8903 54.17 16.3371C54.17 15.7839 53.9981 15.3379 53.6548 14.999C53.3181 14.6533 52.8784 14.4804 52.3347 14.4804C51.7905 14.4804 51.3508 14.6533 51.0146 14.999C50.6779 15.3379 50.5098 15.7839 50.5098 16.3371C50.5098 16.8834 50.6779 17.3294 51.0146 17.6752C51.3508 18.014 51.7905 18.1834 52.3347 18.1834Z" fill="white"/>
<path id="Vector_8" d="M56.3945 19.0189V13.6562H57.1567L57.3822 14.4238C57.5466 14.1541 57.7507 13.9605 57.9939 13.843C58.237 13.7185 58.5271 13.6562 58.8634 13.6562H59.1207L59.2067 14.6313H58.6055C58.2194 14.6313 57.9293 14.7385 57.7365 14.9528C57.5432 15.1672 57.4464 15.4576 57.4464 15.8241V19.0189H56.3945Z" fill="white"/>
<path id="Vector_9" d="M65.2157 16.2956C65.2157 16.4339 65.2124 16.5411 65.2053 16.6171H60.6219C60.6794 17.0943 60.8726 17.4746 61.2017 17.7582C61.5308 18.0417 61.9496 18.1834 62.4573 18.1834C62.8082 18.1834 63.1192 18.1177 63.3913 17.9864C63.6701 17.848 63.8814 17.6682 64.0243 17.447L65.012 17.6026C64.7974 18.0866 64.4503 18.46 63.9707 18.7228C63.4986 18.9856 62.9725 19.117 62.3931 19.117C61.8423 19.117 61.3484 18.9994 60.912 18.7643C60.4756 18.5223 60.1357 18.1903 59.8925 17.7685C59.6489 17.3467 59.5273 16.8695 59.5273 16.3371C59.5273 15.7977 59.6489 15.3171 59.8925 14.8953C60.1357 14.4735 60.4719 14.145 60.9011 13.9099C61.3304 13.6679 61.8205 13.5469 62.3718 13.5469C62.9155 13.5469 63.4018 13.6679 63.831 13.9099C64.2679 14.145 64.6074 14.4735 64.8511 14.8953C65.0942 15.3102 65.2157 15.777 65.2157 16.2956ZM62.3718 14.4493C61.9496 14.4493 61.5845 14.5703 61.2767 14.8123C60.9762 15.0543 60.7758 15.3793 60.6756 15.7874H64.0675C63.9744 15.3863 63.7741 15.0647 63.4663 14.8227C63.1658 14.5738 62.8011 14.4493 62.3718 14.4493Z" fill="white"/>
<path id="Vector_10" d="M28.3271 8.90087C27.951 8.90087 27.6129 8.81523 27.3128 8.64395C27.0127 8.46894 26.7771 8.22691 26.6062 7.91786C26.439 7.60881 26.3555 7.26067 26.3555 6.87342C26.3555 6.48618 26.439 6.13989 26.6062 5.83457C26.7771 5.52552 27.0108 5.28535 27.3071 5.11407C27.6072 4.93906 27.9453 4.85156 28.3214 4.85156C28.7279 4.85156 29.0888 4.9521 29.4041 5.15317C29.7232 5.35051 29.9511 5.6186 30.0879 5.95744L29.5067 6.04681C29.4003 5.83829 29.2426 5.67632 29.0337 5.56089C28.8286 5.44174 28.5968 5.38216 28.3385 5.38216C28.0726 5.38216 27.8351 5.44546 27.6262 5.57206C27.4211 5.69866 27.2596 5.87553 27.1418 6.10266C27.0279 6.32607 26.9709 6.58299 26.9709 6.87342C26.9709 7.16758 27.0279 7.42822 27.1418 7.65536C27.2596 7.87877 27.423 8.05377 27.6319 8.18037C27.8408 8.30697 28.0802 8.37027 28.3499 8.37027C28.6158 8.37027 28.8514 8.31069 29.0565 8.19154C29.2654 8.06867 29.425 7.89738 29.5352 7.6777L30.1164 7.76706C29.972 8.11335 29.7384 8.38889 29.4155 8.59368C29.0926 8.79847 28.7298 8.90087 28.3271 8.90087Z" fill="white"/>
<path id="Vector_11" d="M33.0937 8.8407H32.3586L31.2702 7.64546H31.0936V8.8407H30.5352V5.95312H31.0936V7.12044H31.2645L32.3073 5.95312H32.9798L31.7147 7.34944L33.0937 8.8407Z" fill="white"/>
<path id="Vector_12" d="M34.4213 5.89844C34.786 5.89844 35.0728 6.01573 35.2818 6.25031C35.4945 6.48116 35.6009 6.80511 35.6009 7.22214V8.84186H35.202L35.0709 8.38946C34.976 8.53468 34.8487 8.65569 34.6891 8.7525C34.5296 8.84931 34.3377 8.89772 34.1136 8.89772C33.9161 8.89772 33.7394 8.85862 33.5836 8.78043C33.4279 8.70223 33.3063 8.59425 33.219 8.45648C33.1316 8.31499 33.0879 8.15674 33.0879 7.98173C33.0879 7.70992 33.1981 7.4921 33.4184 7.32826C33.6387 7.16443 33.9578 7.08251 34.3757 7.08251H35.0424C35.0272 6.85538 34.9627 6.68037 34.8487 6.5575C34.7347 6.4309 34.5828 6.3676 34.3928 6.3676C34.2485 6.3676 34.1212 6.40111 34.011 6.46813C33.9009 6.53516 33.8173 6.62266 33.7603 6.73064L33.2417 6.64686C33.3177 6.416 33.464 6.23355 33.6805 6.09951C33.8971 5.96546 34.144 5.89844 34.4213 5.89844ZM34.2333 8.43414C34.4726 8.43414 34.6663 8.35781 34.8145 8.20515C34.9665 8.04876 35.0424 7.83466 35.0424 7.56284V7.52933H34.3928C33.899 7.52933 33.652 7.67455 33.652 7.96498C33.652 8.10647 33.7052 8.22004 33.8116 8.30568C33.918 8.39132 34.0585 8.43414 34.2333 8.43414Z" fill="white"/>
<path id="Vector_13" d="M37.7911 7.79067C37.6999 7.83163 37.5916 7.86328 37.4663 7.88562C37.3409 7.90796 37.2174 7.91913 37.0959 7.91913C36.7426 7.91913 36.471 7.82232 36.281 7.6287C36.0911 7.43508 35.9961 7.1614 35.9961 6.80767V5.95312H36.5545V6.80767C36.5545 7.22098 36.7578 7.42763 37.1643 7.42763C37.4112 7.42763 37.6201 7.38481 37.7911 7.29917V5.95312H38.3495V8.8407H37.7911V7.79067Z" fill="white"/>
<path id="Vector_14" d="M40.1654 5.89844C40.5301 5.89844 40.817 6.01573 41.0259 6.25031C41.2386 6.48116 41.345 6.80511 41.345 7.22214V8.84186H40.9461L40.8151 8.38946C40.7201 8.53468 40.5928 8.65569 40.4333 8.7525C40.2737 8.84931 40.0819 8.89772 39.8577 8.89772C39.6602 8.89772 39.4835 8.85862 39.3278 8.78043C39.172 8.70223 39.0505 8.59425 38.9631 8.45648C38.8757 8.31499 38.832 8.15674 38.832 7.98173C38.832 7.70992 38.9422 7.4921 39.1625 7.32826C39.3829 7.16443 39.702 7.08251 40.1199 7.08251H40.7866C40.7714 6.85538 40.7068 6.68037 40.5928 6.5575C40.4789 6.4309 40.3269 6.3676 40.137 6.3676C39.9926 6.3676 39.8653 6.40111 39.7552 6.46813C39.645 6.53516 39.5614 6.62266 39.5044 6.73064L38.9859 6.64686C39.0619 6.416 39.2081 6.23355 39.4247 6.09951C39.6412 5.96546 39.8881 5.89844 40.1654 5.89844ZM39.9774 8.43414C40.2167 8.43414 40.4105 8.35781 40.5586 8.20515C40.7106 8.04876 40.7866 7.83466 40.7866 7.56284V7.52933H40.137C39.6431 7.52933 39.3962 7.67455 39.3962 7.96498C39.3962 8.10647 39.4494 8.22004 39.5557 8.30568C39.6621 8.39132 39.8027 8.43414 39.9774 8.43414Z" fill="white"/>
<path id="Vector_15" d="M42.7911 8.84505H41.9648V5.95748H42.5062V8.23067H42.5917L43.7826 5.95748H44.6089V8.84505H44.0675V6.57744H43.9821L42.7911 8.84505ZM43.2926 5.58326C43.0456 5.58326 42.8386 5.51996 42.6714 5.39337C42.5081 5.26304 42.4112 5.06942 42.3808 4.8125H42.8367C42.8557 4.93165 42.9032 5.02288 42.9792 5.08618C43.0589 5.14575 43.1634 5.17554 43.2926 5.17554C43.4217 5.17554 43.5243 5.14575 43.6003 5.08618C43.6801 5.02288 43.7275 4.93165 43.7427 4.8125H44.2043C44.1701 5.06942 44.0694 5.26304 43.9023 5.39337C43.7389 5.51996 43.5357 5.58326 43.2926 5.58326Z" fill="white"/>
<path id="Vector_16" d="M46.553 8.8407H45.9946V6.4558H44.9746V5.95312H47.573V6.4558H46.553V8.8407Z" fill="white"/>
<path id="Vector_17" d="M50.6803 7.37853C50.6803 7.453 50.6784 7.51071 50.6746 7.55167H48.2414C48.2718 7.80859 48.3743 8.01338 48.5491 8.16605C48.7238 8.31871 48.9461 8.39504 49.2158 8.39504C49.402 8.39504 49.5672 8.35967 49.7116 8.28892C49.8597 8.21445 49.9718 8.11764 50.0478 7.99849L50.572 8.08227C50.4581 8.34292 50.2738 8.54398 50.0193 8.68548C49.7685 8.82697 49.4893 8.89772 49.1816 8.89772C48.8891 8.89772 48.627 8.83442 48.3952 8.70782C48.1635 8.5775 47.9831 8.39877 47.8539 8.17163C47.7247 7.9445 47.6602 7.68758 47.6602 7.40087C47.6602 7.11044 47.7247 6.85165 47.8539 6.62452C47.9831 6.39739 48.1616 6.22052 48.3895 6.09392C48.6175 5.9636 48.8777 5.89844 49.1702 5.89844C49.4589 5.89844 49.7173 5.9636 49.9452 6.09392C50.1769 6.22052 50.3574 6.39739 50.4865 6.62452C50.6157 6.84793 50.6803 7.09927 50.6803 7.37853ZM49.1702 6.38435C48.9461 6.38435 48.7523 6.44952 48.589 6.57984C48.4294 6.71016 48.3231 6.88516 48.2699 7.10485H50.0706C50.0212 6.88889 49.9148 6.71575 49.7515 6.58542C49.5919 6.45138 49.3982 6.38435 49.1702 6.38435Z" fill="white"/>
<path id="Vector_18" d="M53.1876 8.8407H52.3613V5.95312H52.9027V8.22632H52.9881L54.1791 5.95312H55.0054V8.8407H54.464V6.57309H54.3786L53.1876 8.8407Z" fill="white"/>
<path id="Vector_19" d="M57.2675 7.36736C57.4233 7.41204 57.5524 7.49396 57.655 7.61311C57.7576 7.72854 57.8088 7.87189 57.8088 8.04317C57.8088 8.20328 57.7614 8.3485 57.6664 8.47882C57.5714 8.60542 57.4347 8.70782 57.2561 8.78601C57.0814 8.86048 56.8781 8.89772 56.6464 8.89772C56.3349 8.89772 56.067 8.82697 55.8429 8.68548C55.6188 8.54026 55.4706 8.34664 55.3984 8.10461L55.917 8.02083C56.0424 8.28892 56.2836 8.42297 56.6407 8.42297C56.8382 8.42297 56.9883 8.3876 57.0909 8.31685C57.1972 8.24238 57.2504 8.13998 57.2504 8.00966C57.2504 7.89423 57.201 7.80115 57.1022 7.7304C57.0073 7.65965 56.8534 7.62428 56.6407 7.62428H56.2532V7.14395H56.6407C56.823 7.14395 56.9617 7.11044 57.0567 7.04341C57.1554 6.97639 57.2048 6.88703 57.2048 6.77532C57.2048 6.65617 57.1516 6.55936 57.0453 6.48489C56.9427 6.41042 56.8154 6.37318 56.6635 6.37318C56.5153 6.37318 56.3824 6.40856 56.2646 6.4793C56.1468 6.55005 56.0575 6.64686 55.9968 6.76974L55.4782 6.68037C55.5656 6.4309 55.7156 6.23914 55.9284 6.10509C56.1449 5.96732 56.3957 5.89844 56.6806 5.89844C56.8857 5.89844 57.07 5.93381 57.2333 6.00456C57.4005 6.0753 57.5296 6.17398 57.6208 6.30058C57.7158 6.42717 57.7633 6.56867 57.7633 6.72505C57.7633 6.88516 57.7177 7.02107 57.6265 7.13278C57.5353 7.24448 57.4157 7.32268 57.2675 7.36736Z" fill="white"/>
</g>
</svg>
