<svg preserveAspectRatio="none" overflow="visible" style="display: block;" width="32.0845" height="8.12138" viewBox="0 0 32.0845 8.12138" fill="none" xmlns="http://www.w3.org/2000/svg">
<g id="Rustore_logo_intro (2) 1">
<g clip-path="url(#clip0_0_12448)">
<path id="Vector" fill-rule="evenodd" clip-rule="evenodd" d="M3.88211 8.12154C2.05154 8.12154 1.13625 8.12154 0.567564 7.55065C-0.00112235 6.97976 -0.00112239 6.06092 -0.00112247 4.22326L-0.00112249 3.8984C-0.00112257 2.06073 -0.00112262 1.1419 0.567563 0.571012C1.13625 0.00015728 2.05154 0.000157242 3.8821 0.000157162L4.20571 0.000157148C6.03628 0.000157068 6.95157 0.000157016 7.52026 0.571011C8.08894 1.14189 8.08894 2.06073 8.08894 3.8984V4.22326C8.08894 6.06092 8.08894 6.97976 7.52026 7.55065C6.95157 8.12154 6.03628 8.12154 4.20571 8.12154H3.88211Z" fill="#0077FF"/>
<path id="Vector_2" d="M4.67715 5.0049C4.45919 4.95024 4.30635 4.7545 4.30635 4.53001V1.88522C4.30635 1.63024 4.54637 1.44323 4.79394 1.50531L6.36176 1.89848C6.57973 1.95313 6.73257 2.14887 6.73257 2.37336V5.01815C6.73257 5.27314 6.49255 5.46015 6.24498 5.39807L4.67715 5.0049Z" fill="white"/>
<path id="Vector_3" d="M1.726 6.22293C1.50803 6.16827 1.3552 5.97253 1.3552 5.74804V3.10325C1.3552 2.84827 1.59521 2.66126 1.84278 2.72335L3.41061 3.11651C3.62857 3.17117 3.78141 3.3669 3.78141 3.59139V6.23618C3.78141 6.49117 3.54139 6.67818 3.29382 6.61609L1.726 6.22293Z" fill="white"/>
<path id="Vector_4" d="M3.20157 5.61409C2.9836 5.55943 2.83077 5.3637 2.83077 5.13921V2.49442C2.83077 2.23944 3.07079 2.05243 3.31837 2.11451L4.88618 2.50768C5.10416 2.56234 5.25698 2.75807 5.25698 2.98256V5.62735C5.25698 5.88234 5.01698 6.06934 4.76939 6.00726L3.20157 5.61409Z" fill="white"/>
<path id="Vector_5" d="M4.22762 5.87201C4.15897 5.85445 4.11011 5.79351 4.10771 5.72243L4.0395 3.70261C4.01977 3.43529 3.8221 3.22268 3.61554 3.16008C3.60393 3.15656 3.59155 3.16129 3.58468 3.17131C3.57771 3.18149 3.5804 3.19558 3.59013 3.20315C3.64115 3.24278 3.78154 3.37215 3.78154 3.59526L3.78112 5.75842L4.22762 5.87201Z" fill="#2B71F6"/>
<path id="Vector_6" d="M5.70321 5.26239C5.63461 5.24516 5.58568 5.18439 5.58329 5.11344L5.51507 3.09378C5.49534 2.82645 5.29768 2.61385 5.09111 2.55124C5.07951 2.54772 5.06713 2.55246 5.06026 2.56247C5.05328 2.57265 5.05598 2.58674 5.06571 2.59431C5.11672 2.63395 5.25712 2.76331 5.25712 2.98643L5.2567 5.15032L5.70321 5.26239Z" fill="#2B71F6"/>
<g id="Group 18">
<path id="Vector_7" d="M12.7478 6.11552C13.3604 5.95872 13.763 5.48834 13.763 4.87277C13.763 4.11202 13.1561 3.57777 12.3043 3.57777H10.7873V7.67185H11.4875V6.16778H11.9834L13.0686 7.67185H13.8913L12.7478 6.11552ZM12.3043 4.21656C12.7419 4.21656 13.0454 4.48369 13.0454 4.87277C13.0454 5.26185 12.7419 5.52899 12.3043 5.52899H11.4875V4.21656H12.3043Z" fill="black"/>
<path id="Vector_8" d="M15.4667 7.72995C15.8343 7.72995 16.1727 7.53831 16.3653 7.21891L16.4994 7.67188H17.0013V4.65212H16.3303V6.4001C16.3303 6.82983 16.0443 7.13181 15.6534 7.13181C15.2683 7.13181 14.9999 6.82983 14.9999 6.4001V4.65212H14.329V6.47559C14.329 7.20149 14.8191 7.72995 15.4667 7.72995Z" fill="black"/>
<path id="Vector_9" d="M19.143 7.72981C19.919 7.72981 20.5609 7.28846 20.5609 6.55675C20.5609 5.73793 19.8899 5.49984 19.3123 5.30239C18.863 5.15141 18.4721 5.01204 18.4721 4.64618C18.4721 4.32678 18.7696 4.15837 19.1197 4.15837C19.4873 4.15837 19.7499 4.35001 19.8958 4.67521L20.5609 4.56488C20.3508 3.92608 19.8198 3.51958 19.0964 3.51958C18.3496 3.51958 17.7544 3.94931 17.7544 4.68103C17.7544 5.50565 18.4254 5.73213 19.003 5.92376C19.4465 6.06895 19.8432 6.20832 19.8432 6.57998C19.8432 6.90519 19.5457 7.09102 19.1489 7.09102C18.6937 7.09102 18.4487 6.87615 18.2329 6.48706L17.556 6.60321C17.7544 7.29427 18.3846 7.72981 19.143 7.72981Z" fill="black"/>
<path id="Vector_10" d="M22.386 7.09119C22.1585 7.09119 22.0476 6.98085 22.0476 6.75437V5.23288H22.9519V4.65215H22.0476V3.78107H21.5458L21.3766 4.65215H20.8807V5.23288H21.3766V6.75437C21.3766 7.34671 21.7209 7.67191 22.386 7.67191H22.9519L23.0103 7.09119H22.386Z" fill="black"/>
<path id="Vector_11" d="M24.928 7.72983C25.8791 7.72983 26.55 7.07942 26.55 6.16188C26.55 5.24433 25.8791 4.59393 24.928 4.59393C23.977 4.59393 23.306 5.24433 23.306 6.16188C23.306 7.07942 23.977 7.72983 24.928 7.72983ZM24.928 7.12007C24.3796 7.12007 24.0061 6.73099 24.0061 6.16188C24.0061 5.59277 24.3796 5.20369 24.928 5.20369C25.4765 5.20369 25.8499 5.59277 25.8499 6.16188C25.8499 6.73099 25.4765 7.12007 24.928 7.12007Z" fill="black"/>
<path id="Vector_12" d="M27.8045 7.67188V5.88906C27.8045 5.50579 27.9912 5.29091 28.3997 5.29091H28.7848L28.7264 4.65212H28.5981C28.2421 4.65212 27.9679 4.75084 27.7637 5.08766L27.6353 4.65212H27.1336V7.67188H27.8045Z" fill="black"/>
<path id="Vector_13" d="M32.086 6.12703C32.086 5.25595 31.4326 4.59393 30.5107 4.59393C29.5889 4.59393 28.9353 5.25015 28.9353 6.16188C28.9353 7.07361 29.5889 7.72983 30.5107 7.72983C31.1409 7.72983 31.7359 7.43366 31.9636 6.85874L31.3334 6.75422C31.1876 6.96908 30.9074 7.12007 30.5516 7.12007C30.0381 7.12007 29.6997 6.80648 29.6355 6.3419H32.0743C32.0802 6.27802 32.086 6.20833 32.086 6.12703ZM30.5107 5.17465C30.9308 5.17465 31.2458 5.44178 31.3567 5.81925H29.6764C29.7872 5.43016 30.1023 5.17465 30.5107 5.17465Z" fill="black"/>
</g>
<g id="&#208;&#148;&#208;&#190;&#209;&#129;&#209;&#130;&#209;&#131;&#208;&#191;&#208;&#189;&#208;&#190; &#208;&#178;">
<path d="M10.8423 2.55148V1.96024H10.8808C10.9307 1.96024 10.9706 1.94797 11.0006 1.92343C11.0305 1.89888 11.0555 1.84979 11.0754 1.77616C11.0968 1.70108 11.1132 1.59063 11.1246 1.44481L11.1866 0.639166H12.1363V1.96024H12.3567V2.55148H12.1363V2.16599H11.0626V2.55148H10.8423ZM11.916 1.96024V0.844907H11.3898L11.3449 1.45564C11.3278 1.69964 11.2836 1.86784 11.2123 1.96024H11.916Z" fill="black"/>
<path d="M13.057 2.18764C12.9443 2.18764 12.8438 2.1631 12.7554 2.11401C12.667 2.06492 12.5978 1.99634 12.5479 1.90827C12.498 1.82019 12.4731 1.71985 12.4731 1.60723C12.4731 1.49462 12.498 1.39427 12.5479 1.3062C12.5978 1.21813 12.667 1.14955 12.7554 1.10046C12.8438 1.04993 12.9443 1.02466 13.057 1.02466C13.1697 1.02466 13.2702 1.04993 13.3586 1.10046C13.447 1.14955 13.5162 1.21813 13.5661 1.3062C13.616 1.39427 13.6409 1.49462 13.6409 1.60723C13.6409 1.71985 13.616 1.82019 13.5661 1.90827C13.5162 1.99634 13.447 2.06492 13.3586 2.11401C13.2702 2.1631 13.1697 2.18764 13.057 2.18764ZM13.057 1.99273C13.1654 1.99273 13.2531 1.95736 13.3201 1.88661C13.3885 1.81586 13.4228 1.72274 13.4228 1.60723C13.4228 1.49173 13.3885 1.3986 13.3201 1.32786C13.2531 1.25567 13.1654 1.21957 13.057 1.21957C12.9486 1.21957 12.8609 1.25567 12.7939 1.32786C12.7269 1.3986 12.6934 1.49173 12.6934 1.60723C12.6934 1.72129 12.7269 1.81442 12.7939 1.88661C12.8609 1.95736 12.9486 1.99273 13.057 1.99273Z" fill="black"/>
<path d="M14.3748 2.18764C14.265 2.18764 14.1659 2.1631 14.0775 2.11401C13.9905 2.06348 13.9228 1.99417 13.8743 1.9061C13.8258 1.81803 13.8016 1.71841 13.8016 1.60723C13.8016 1.49462 13.8258 1.39427 13.8743 1.3062C13.9228 1.21813 13.9905 1.14955 14.0775 1.10046C14.1645 1.04993 14.2636 1.02466 14.3748 1.02466C14.4932 1.02466 14.5987 1.05354 14.6914 1.11129C14.7855 1.16904 14.8525 1.25206 14.8924 1.36034L14.6956 1.39283C14.67 1.34085 14.6293 1.29898 14.5737 1.26722C14.5195 1.23546 14.4575 1.21957 14.3876 1.21957C14.2793 1.21957 14.1908 1.25567 14.1224 1.32786C14.0554 1.40005 14.0219 1.49317 14.0219 1.60723C14.0219 1.72129 14.0554 1.81442 14.1224 1.88661C14.1908 1.95736 14.2793 1.99273 14.3876 1.99273C14.4604 1.99273 14.5245 1.97613 14.5801 1.94292C14.6372 1.90971 14.6785 1.86567 14.7042 1.81081L14.901 1.8433C14.8611 1.95302 14.7926 2.03821 14.6956 2.09885C14.6001 2.15804 14.4932 2.18764 14.3748 2.18764Z" fill="black"/>
<path d="M15.5482 2.16599H15.3386V1.24123H14.9557V1.04632H15.931V1.24123H15.5482V2.16599Z" fill="black"/>
<path d="M16.9213 1.04632H17.1374L16.6754 2.33491C16.6411 2.43164 16.5962 2.50167 16.5406 2.54498C16.485 2.5883 16.4108 2.60995 16.3181 2.60995H16.1534L16.1342 2.41504H16.331C16.3723 2.41504 16.4044 2.40566 16.4272 2.38689C16.4501 2.36956 16.4693 2.33852 16.485 2.29376L16.5085 2.22879L16.0166 1.04632H16.2411L16.5919 1.91043H16.6219L16.9213 1.04632Z" fill="black"/>
<path d="M17.5365 2.16599H17.3269V1.04632H18.2681V2.16599H18.0584V1.24123H17.5365V2.16599Z" fill="black"/>
<path d="M19.2995 1.50328V1.04632H19.5091V2.16599H19.2995V1.69819H18.7669V2.16599H18.5572V1.04632H18.7669V1.50328H19.2995Z" fill="black"/>
<path d="M20.3178 2.18764C20.2051 2.18764 20.1046 2.1631 20.0162 2.11401C19.9278 2.06492 19.8586 1.99634 19.8087 1.90827C19.7588 1.82019 19.7338 1.71985 19.7338 1.60723C19.7338 1.49462 19.7588 1.39427 19.8087 1.3062C19.8586 1.21813 19.9278 1.14955 20.0162 1.10046C20.1046 1.04993 20.2051 1.02466 20.3178 1.02466C20.4304 1.02466 20.531 1.04993 20.6194 1.10046C20.7078 1.14955 20.7769 1.21813 20.8269 1.3062C20.8768 1.39427 20.9017 1.49462 20.9017 1.60723C20.9017 1.71985 20.8768 1.82019 20.8269 1.90827C20.7769 1.99634 20.7078 2.06492 20.6194 2.11401C20.531 2.1631 20.4304 2.18764 20.3178 2.18764ZM20.3178 1.99273C20.4262 1.99273 20.5139 1.95736 20.5809 1.88661C20.6493 1.81586 20.6835 1.72274 20.6835 1.60723C20.6835 1.49173 20.6493 1.3986 20.5809 1.32786C20.5139 1.25567 20.4262 1.21957 20.3178 1.21957C20.2094 1.21957 20.1217 1.25567 20.0547 1.32786C19.9877 1.3986 19.9542 1.49173 19.9542 1.60723C19.9542 1.72129 19.9877 1.81442 20.0547 1.88661C20.1217 1.95736 20.2094 1.99273 20.3178 1.99273Z" fill="black"/>
<path d="M22.374 1.57908C22.4311 1.60074 22.4767 1.63611 22.5109 1.6852C22.5466 1.73284 22.5644 1.78915 22.5644 1.85412C22.5644 1.91332 22.5473 1.96674 22.5131 2.01439C22.4803 2.06203 22.4339 2.09957 22.374 2.127C22.3141 2.15299 22.2457 2.16599 22.1687 2.16599H21.6404V1.04632H22.1494C22.2222 1.04632 22.287 1.05931 22.3441 1.0853C22.4011 1.11129 22.4453 1.14666 22.4767 1.19142C22.5095 1.23618 22.5259 1.28743 22.5259 1.34518C22.5259 1.40005 22.5123 1.44769 22.4853 1.48812C22.4596 1.5271 22.4225 1.55742 22.374 1.57908ZM21.85 1.22607V1.50111H22.1494C22.1979 1.50111 22.2378 1.48884 22.2692 1.4643C22.3006 1.43831 22.3163 1.4051 22.3163 1.36468C22.3163 1.32425 22.3006 1.29104 22.2692 1.26505C22.2378 1.23907 22.1979 1.22607 22.1494 1.22607H21.85ZM22.1687 1.98623C22.2243 1.98623 22.2692 1.97179 22.3034 1.94292C22.3377 1.91404 22.3548 1.8765 22.3548 1.8303C22.3548 1.7841 22.3377 1.74656 22.3034 1.71768C22.2692 1.68881 22.2243 1.67437 22.1687 1.67437H21.85V1.98623H22.1687Z" fill="black"/>
</g>
</g>
<rect x="0.5" y="0.5" width="31.0845" height="7.12138" rx="3.56069" stroke="#A6A6A6"/>
</g>
<defs>
<clipPath id="clip0_0_12448">
<rect width="32.0845" height="8.12138" rx="4.06069" fill="white"/>
</clipPath>
</defs>
</svg>
