<svg preserveAspectRatio="none" overflow="visible" style="display: block;" width="52.7445" height="43.4414" viewBox="0 0 52.7445 43.4414" fill="none" xmlns="http://www.w3.org/2000/svg">
<g id="Group">
<path id="Vector" d="M26.954 41.0303C28.6245 40.7548 30.3035 40.462 31.9654 40.1606C33.61 39.8593 35.3752 39.4804 36.4945 38.2405C37.8894 36.6906 37.7947 34.3485 37.6311 32.2733C36.7787 21.8976 35.9262 11.5218 35.0738 1.14609" stroke="black" stroke-width="0.861059" stroke-miterlimit="10" stroke-linecap="round" stroke-linejoin="round"/>
<path id="Vector_2" d="M20.832 0.430534C21.1937 11.5812 21.297 32.9785 19.5835 34.2615C18.8257 34.8298 17.8958 35.1226 16.9831 35.3551C13.3494 36.2764 9.57799 36.4142 5.93571 37.2666C4.6269 37.568 1.62181 38.0674 0.769358 39.2126C-0.0572577 40.3234 0.752128 41.9852 1.86289 42.4932C2.88755 42.9668 4.0586 43.0013 5.1952 43.0099C12.4884 43.0443 19.7385 42.2177 26.9455 41.038" stroke="black" stroke-width="0.861059" stroke-miterlimit="10" stroke-linecap="round" stroke-linejoin="round"/>
<path id="Vector_3" d="M26.9463 41.0303C26.9463 41.0303 26.9463 41.0303 26.9549 41.0303C33.8606 41.4522 40.6544 41.5814 47.6117 41.2714C48.8861 41.2111 50.2293 40.927 51.1593 40.0401C52.5198 38.7485 52.4164 36.57 52.1495 34.7101C51.1248 27.5719 49.2478 20.5974 47.3793 13.64C46.2599 9.45527 45.1319 5.27053 44.0125 1.08578" stroke="black" stroke-width="0.861059" stroke-miterlimit="10" stroke-linecap="round" stroke-linejoin="round"/>
</g>
</svg>
