<svg width="250" height="35" viewBox="0 0 250 35" fill="none" xmlns="http://www.w3.org/2000/svg">
<path d="M11.0401 33.9839C10.9761 33.7599 10.9121 33.5519 10.8481 33.3599C10.7841 33.1679 10.7201 32.9279 10.6561 32.6399C10.6241 32.3519 10.5921 31.9839 10.5601 31.5359C10.5601 31.0879 10.5601 30.5279 10.5601 29.8559V24.5759C10.5601 23.0079 10.2881 21.9039 9.74408 21.2639C9.20008 20.6239 8.32008 20.3039 7.10408 20.3039H5.28008V33.9839H7.82609e-05V0.383884H7.96808C10.7201 0.383884 12.7041 1.02388 13.9201 2.30389C15.1681 3.58389 15.7921 5.51989 15.7921 8.11189V10.7519C15.7921 14.2079 14.6401 16.4799 12.3361 17.5679C13.6801 18.1119 14.5921 19.0079 15.0721 20.2559C15.5841 21.4719 15.8401 22.9599 15.8401 24.7199V29.9039C15.8401 30.7359 15.8721 31.4719 15.9361 32.1119C16.0001 32.7199 16.1601 33.3439 16.4161 33.9839H11.0401ZM5.28008 5.18389V15.5039H7.34408C8.33608 15.5039 9.10408 15.2479 9.64808 14.7359C10.2241 14.2239 10.5121 13.2959 10.5121 11.9519V8.63989C10.5121 7.42389 10.2881 6.54389 9.84008 5.99989C9.42408 5.45589 8.75208 5.18389 7.82408 5.18389H5.28008ZM24.3526 0.383884V26.3039C24.3526 27.5199 24.5926 28.3679 25.0726 28.8479C25.5846 29.3279 26.2566 29.5679 27.0886 29.5679C27.9206 29.5679 28.5766 29.3279 29.0566 28.8479C29.5686 28.3679 29.8246 27.5199 29.8246 26.3039V0.383884H34.8166V25.9679C34.8166 28.6879 34.1446 30.7839 32.8006 32.2559C31.4886 33.6959 29.5366 34.4159 26.9446 34.4159C24.3526 34.4159 22.3846 33.6959 21.0406 32.2559C19.7286 30.7839 19.0726 28.6879 19.0726 25.9679V0.383884H24.3526ZM37.7656 8.44789C37.7656 5.72789 38.4056 3.64788 39.6856 2.20788C40.9976 0.735886 42.9496 -0.000113487 45.5416 -0.000113487C48.1336 -0.000113487 50.0696 0.735886 51.3496 2.20788C52.6616 3.64788 53.3176 5.72789 53.3176 8.44789V9.50388H48.3256V8.11189C48.3256 6.89589 48.0856 6.04789 47.6056 5.56789C47.1576 5.05589 46.5176 4.79988 45.6856 4.79988C44.8536 4.79988 44.1976 5.05589 43.7176 5.56789C43.2696 6.04789 43.0456 6.89589 43.0456 8.11189C43.0456 9.26389 43.3016 10.2879 43.8136 11.1839C44.3256 12.0479 44.9656 12.8799 45.7336 13.6799C46.5016 14.4479 47.3176 15.2319 48.1816 16.0319C49.0776 16.7999 49.9096 17.6479 50.6776 18.5759C51.4456 19.5039 52.0856 20.5599 52.5976 21.7439C53.1096 22.9279 53.3656 24.3199 53.3656 25.9199C53.3656 28.6399 52.6936 30.7359 51.3496 32.2079C50.0376 33.6479 48.0856 34.3679 45.4936 34.3679C42.9016 34.3679 40.9336 33.6479 39.5896 32.2079C38.2776 30.7359 37.6216 28.6399 37.6216 25.9199V23.8559H42.6136V26.2559C42.6136 27.4719 42.8536 28.3199 43.3336 28.7999C43.8456 29.2799 44.5176 29.5199 45.3496 29.5199C46.1816 29.5199 46.8376 29.2799 47.3176 28.7999C47.8296 28.3199 48.0856 27.4719 48.0856 26.2559C48.0856 25.1039 47.8296 24.0959 47.3176 23.2319C46.8056 22.3359 46.1656 21.5039 45.3976 20.7359C44.6296 19.9359 43.7976 19.1519 42.9016 18.3839C42.0376 17.5839 41.2216 16.7199 40.4536 15.7919C39.6856 14.8639 39.0456 13.8079 38.5336 12.6239C38.0216 11.4399 37.7656 10.0479 37.7656 8.44789ZM55.7187 8.44789C55.7187 5.72789 56.3587 3.64788 57.6387 2.20788C58.9507 0.735886 60.9027 -0.000113487 63.4947 -0.000113487C66.0867 -0.000113487 68.0227 0.735886 69.3027 2.20788C70.6147 3.64788 71.2707 5.72789 71.2707 8.44789V9.50388H66.2787V8.11189C66.2787 6.89589 66.0387 6.04789 65.5587 5.56789C65.1107 5.05589 64.4707 4.79988 63.6387 4.79988C62.8067 4.79988 62.1507 5.05589 61.6707 5.56789C61.2227 6.04789 60.9987 6.89589 60.9987 8.11189C60.9987 9.26389 61.2547 10.2879 61.7667 11.1839C62.2787 12.0479 62.9187 12.8799 63.6867 13.6799C64.4547 14.4479 65.2707 15.2319 66.1347 16.0319C67.0307 16.7999 67.8627 17.6479 68.6307 18.5759C69.3987 19.5039 70.0387 20.5599 70.5507 21.7439C71.0627 22.9279 71.3187 24.3199 71.3187 25.9199C71.3187 28.6399 70.6467 30.7359 69.3027 32.2079C67.9907 33.6479 66.0387 34.3679 63.4467 34.3679C60.8547 34.3679 58.8867 33.6479 57.5427 32.2079C56.2307 30.7359 55.5747 28.6399 55.5747 25.9199V23.8559H60.5667V26.2559C60.5667 27.4719 60.8067 28.3199 61.2867 28.7999C61.7987 29.2799 62.4707 29.5199 63.3027 29.5199C64.1347 29.5199 64.7907 29.2799 65.2707 28.7999C65.7827 28.3199 66.0387 27.4719 66.0387 26.2559C66.0387 25.1039 65.7827 24.0959 65.2707 23.2319C64.7587 22.3359 64.1187 21.5039 63.3507 20.7359C62.5827 19.9359 61.7507 19.1519 60.8547 18.3839C59.9907 17.5839 59.1747 16.7199 58.4067 15.7919C57.6387 14.8639 56.9987 13.8079 56.4867 12.6239C55.9747 11.4399 55.7187 10.0479 55.7187 8.44789ZM82.1198 0.383884C84.7758 0.383884 86.7438 1.08788 88.0238 2.49589C89.3358 3.90388 89.9918 5.96789 89.9918 8.68789V13.0559C89.9918 15.7759 89.3358 17.8399 88.0238 19.2479C86.7438 20.6559 84.7758 21.3599 82.1198 21.3599H79.6238V33.9839H74.3438V0.383884H82.1198ZM79.6238 5.18389V16.5599H82.1198C82.9518 16.5599 83.5918 16.3359 84.0398 15.8879C84.4878 15.4399 84.7118 14.6079 84.7118 13.3919V8.35188C84.7118 7.13589 84.4878 6.30389 84.0398 5.85589C83.5918 5.40789 82.9518 5.18389 82.1198 5.18389H79.6238ZM109.151 33.9839H103.823L102.911 27.8879H96.4306L95.5186 33.9839H90.6706L96.0466 0.383884H103.775L109.151 33.9839ZM97.1026 23.3279H102.191L99.6466 6.33589L97.1026 23.3279ZM110.937 8.44789C110.937 5.72789 111.577 3.64788 112.857 2.20788C114.169 0.735886 116.121 -0.000113487 118.713 -0.000113487C121.305 -0.000113487 123.241 0.735886 124.521 2.20788C125.833 3.64788 126.489 5.72789 126.489 8.44789V9.50388H121.497V8.11189C121.497 6.89589 121.257 6.04789 120.777 5.56789C120.329 5.05589 119.689 4.79988 118.857 4.79988C118.025 4.79988 117.369 5.05589 116.889 5.56789C116.441 6.04789 116.217 6.89589 116.217 8.11189C116.217 9.26389 116.473 10.2879 116.985 11.1839C117.497 12.0479 118.137 12.8799 118.905 13.6799C119.673 14.4479 120.489 15.2319 121.353 16.0319C122.249 16.7999 123.081 17.6479 123.849 18.5759C124.617 19.5039 125.257 20.5599 125.769 21.7439C126.281 22.9279 126.537 24.3199 126.537 25.9199C126.537 28.6399 125.865 30.7359 124.521 32.2079C123.209 33.6479 121.257 34.3679 118.665 34.3679C116.073 34.3679 114.105 33.6479 112.761 32.2079C111.449 30.7359 110.793 28.6399 110.793 25.9199V23.8559H115.785V26.2559C115.785 27.4719 116.025 28.3199 116.505 28.7999C117.017 29.2799 117.689 29.5199 118.521 29.5199C119.353 29.5199 120.009 29.2799 120.489 28.7999C121.001 28.3199 121.257 27.4719 121.257 26.2559C121.257 25.1039 121.001 24.0959 120.489 23.2319C119.977 22.3359 119.337 21.5039 118.569 20.7359C117.801 19.9359 116.969 19.1519 116.073 18.3839C115.209 17.5839 114.393 16.7199 113.625 15.7919C112.857 14.8639 112.217 13.8079 111.705 12.6239C111.193 11.4399 110.937 10.0479 110.937 8.44789ZM128.891 8.44789C128.891 5.72789 129.531 3.64788 130.811 2.20788C132.123 0.735886 134.075 -0.000113487 136.667 -0.000113487C139.259 -0.000113487 141.195 0.735886 142.475 2.20788C143.787 3.64788 144.443 5.72789 144.443 8.44789V9.50388H139.451V8.11189C139.451 6.89589 139.211 6.04789 138.731 5.56789C138.283 5.05589 137.643 4.79988 136.811 4.79988C135.979 4.79988 135.323 5.05589 134.843 5.56789C134.395 6.04789 134.171 6.89589 134.171 8.11189C134.171 9.26389 134.427 10.2879 134.939 11.1839C135.451 12.0479 136.091 12.8799 136.859 13.6799C137.627 14.4479 138.443 15.2319 139.307 16.0319C140.203 16.7999 141.035 17.6479 141.803 18.5759C142.571 19.5039 143.211 20.5599 143.723 21.7439C144.235 22.9279 144.491 24.3199 144.491 25.9199C144.491 28.6399 143.819 30.7359 142.475 32.2079C141.163 33.6479 139.211 34.3679 136.619 34.3679C134.027 34.3679 132.059 33.6479 130.715 32.2079C129.403 30.7359 128.747 28.6399 128.747 25.9199V23.8559H133.739V26.2559C133.739 27.4719 133.979 28.3199 134.459 28.7999C134.971 29.2799 135.643 29.5199 136.475 29.5199C137.307 29.5199 137.963 29.2799 138.443 28.7999C138.955 28.3199 139.211 27.4719 139.211 26.2559C139.211 25.1039 138.955 24.0959 138.443 23.2319C137.931 22.3359 137.291 21.5039 136.523 20.7359C135.755 19.9359 134.923 19.1519 134.027 18.3839C133.163 17.5839 132.347 16.7199 131.579 15.7919C130.811 14.8639 130.171 13.8079 129.659 12.6239C129.147 11.4399 128.891 10.0479 128.891 8.44789ZM152.369 28.8959V33.9839H147.281V28.8959H152.369Z" fill="#FF3000"/>
<path d="M160.508 21.9359V26.2559C160.508 27.4719 160.748 28.3199 161.228 28.7999C161.74 29.2799 162.412 29.5199 163.244 29.5199C164.076 29.5199 164.732 29.2799 165.212 28.7999C165.724 28.3199 165.98 27.4719 165.98 26.2559V19.0079H161.132V14.2079H165.98V8.11189C165.98 6.89589 165.724 6.04789 165.212 5.56789C164.732 5.05589 164.076 4.79988 163.244 4.79988C162.412 4.79988 161.74 5.05589 161.228 5.56789C160.748 6.04789 160.508 6.89589 160.508 8.11189V11.2799H155.612V8.44789C155.612 5.72789 156.252 3.64788 157.532 2.20788C158.844 0.735886 160.796 -0.000113487 163.388 -0.000113487C165.98 -0.000113487 167.932 0.735886 169.244 2.20788C170.588 3.64788 171.26 5.72789 171.26 8.44789V25.9199C171.26 28.6399 170.588 30.7359 169.244 32.2079C167.932 33.6479 165.98 34.3679 163.388 34.3679C160.796 34.3679 158.828 33.6479 157.484 32.2079C156.172 30.7359 155.516 28.6399 155.516 25.9199V21.9359H160.508ZM181.615 20.5919L179.983 23.6639V33.9839H174.703V0.383884H179.983V15.0239L186.895 0.383884H192.175L184.831 15.3599L192.175 33.9839H186.751L181.615 20.5919ZM209.89 21.4559V25.9199C209.89 28.6399 209.218 30.7359 207.874 32.2079C206.562 33.6479 204.61 34.3679 202.018 34.3679C199.426 34.3679 197.458 33.6479 196.114 32.2079C194.802 30.7359 194.146 28.6399 194.146 25.9199V8.44789C194.146 5.72789 194.802 3.64788 196.114 2.20788C197.458 0.735886 199.426 -0.000113487 202.018 -0.000113487C204.61 -0.000113487 206.562 0.735886 207.874 2.20788C209.218 3.64788 209.89 5.72789 209.89 8.44789V11.7119H204.898V8.11189C204.898 6.89589 204.642 6.04789 204.13 5.56789C203.65 5.05589 202.994 4.79988 202.162 4.79988C201.33 4.79988 200.658 5.05589 200.146 5.56789C199.666 6.04789 199.426 6.89589 199.426 8.11189V26.2559C199.426 27.4719 199.666 28.3199 200.146 28.7999C200.658 29.2799 201.33 29.5199 202.162 29.5199C202.994 29.5199 203.65 29.2799 204.13 28.7999C204.642 28.3199 204.898 27.4719 204.898 26.2559V21.4559H209.89ZM218.374 33.9839H213.094V0.383884H229.75V33.9839H224.374V5.18389H218.374V33.9839ZM238.426 26.2559C238.426 27.4719 238.666 28.3359 239.146 28.8479C239.658 29.3279 240.33 29.5679 241.162 29.5679C241.994 29.5679 242.65 29.3279 243.13 28.8479C243.642 28.3359 243.898 27.4719 243.898 26.2559V8.11189C243.898 6.89589 243.642 6.04789 243.13 5.56789C242.65 5.05589 241.994 4.79988 241.162 4.79988C240.33 4.79988 239.658 5.05589 239.146 5.56789C238.666 6.04789 238.426 6.89589 238.426 8.11189V26.2559ZM233.146 8.44789C233.146 5.72789 233.834 3.64788 235.21 2.20788C236.586 0.735886 238.57 -0.000113487 241.162 -0.000113487C243.754 -0.000113487 245.738 0.735886 247.114 2.20788C248.49 3.64788 249.178 5.72789 249.178 8.44789V25.9199C249.178 28.6399 248.49 30.7359 247.114 32.2079C245.738 33.6479 243.754 34.3679 241.162 34.3679C238.57 34.3679 236.586 33.6479 235.21 32.2079C233.834 30.7359 233.146 28.6399 233.146 25.9199V8.44789Z" fill="#1D1D1D"/>
</svg>
